<svg width="22" height="21" viewBox="0 0 22 21" fill="none" xmlns="http://www.w3.org/2000/svg">
<path id="Fill 12 Copy 2" fill-rule="evenodd" clip-rule="evenodd" d="M5.879 5.724L7.261 12.597C7.316 12.875 7.469 13.126 7.691 13.304C7.914 13.482 8.206 13.593 8.479 13.571H17.327C17.623 13.594 17.905 13.482 18.127 13.304C18.349 13.126 18.502 12.875 18.557 12.597L19.874 5.724H5.879ZM6.941 14.24C6.499 13.886 6.195 13.386 6.085 12.832L4.564 5.273C4.559 5.253 4.555 5.233 4.552 5.213L3.745 1.2H0.6C0.269 1.2 0 0.932 0 0.6C0 0.268 0.269 0 0.6 0H4.236C4.522 0 4.768 0.202 4.825 0.482L5.638 4.524H20.6C20.779 4.524 20.949 4.604 21.063 4.742C21.177 4.88 21.223 5.061 21.19 5.237L19.735 12.828C19.623 13.386 19.319 13.886 18.878 14.24C18.436 14.594 17.871 14.766 17.316 14.771H8.491C8.476 14.771 8.461 14.772 8.445 14.772C7.907 14.772 7.371 14.584 6.941 14.24ZM7.873 18.391C7.702 18.391 7.564 18.527 7.564 18.695C7.564 18.863 7.702 19 7.873 19C8.043 19 8.182 18.863 8.182 18.695C8.182 18.527 8.043 18.391 7.873 18.391ZM7.873 20.2C7.041 20.2 6.363 19.525 6.363 18.695C6.363 17.866 7.041 17.19 7.873 17.19C8.705 17.19 9.382 17.866 9.382 18.695C9.382 19.525 8.705 20.2 7.873 20.2ZM17.873 18.391C17.702 18.391 17.564 18.527 17.564 18.695C17.564 18.863 17.702 19 17.873 19C18.043 19 18.182 18.863 18.182 18.695C18.182 18.527 18.043 18.391 17.873 18.391ZM17.873 20.2C17.041 20.2 16.363 19.525 16.363 18.695C16.363 17.866 17.041 17.19 17.873 17.19C18.705 17.19 19.382 17.866 19.382 18.695C19.382 19.525 18.705 20.2 17.873 20.2Z" fill="white"/>
</svg>
