<svg width="40" height="40" viewBox="0 0 40 40" fill="none" xmlns="http://www.w3.org/2000/svg">
<rect width="40" height="40" fill="white"/>
<path d="M12.5098 30.0298C12.5098 29.6182 12.5098 29.2066 12.5098 28.795C12.5098 27.8095 12.5098 26.824 12.5098 25.8385C12.5098 24.6471 12.5098 23.4558 12.5098 22.2645C12.5098 21.231 12.5098 20.1975 12.5098 19.1662C12.5098 18.6654 12.519 18.1647 12.5098 17.6662C12.5098 17.6593 12.5098 17.6525 12.5098 17.6456C12.5098 17.2866 12.1943 16.9436 11.8238 16.9596C11.4511 16.9757 11.1379 17.2615 11.1379 17.6456C11.1379 18.0572 11.1379 18.4688 11.1379 18.8804C11.1379 19.8659 11.1379 20.8514 11.1379 21.8369C11.1379 23.0282 11.1379 24.2196 11.1379 25.4109C11.1379 26.4444 11.1379 27.4779 11.1379 28.5092C11.1379 29.01 11.1287 29.5107 11.1379 30.0092C11.1379 30.016 11.1379 30.0229 11.1379 30.0298C11.1379 30.3888 11.4534 30.7317 11.8238 30.7157C12.1965 30.6975 12.5098 30.4139 12.5098 30.0298Z" fill="black"/>
<path d="M12.5096 13.3903C12.5096 12.3087 12.5096 11.2272 12.5096 10.1456C12.5096 9.99472 12.5096 9.8461 12.5096 9.69518C12.5096 9.33619 12.1941 8.9932 11.8237 9.00921C11.451 9.02521 11.1377 9.31104 11.1377 9.69518C11.1377 10.7767 11.1377 11.8583 11.1377 12.9398C11.1377 13.0908 11.1377 13.2394 11.1377 13.3903C11.1377 13.7493 11.4532 14.0923 11.8237 14.0763C12.1964 14.0603 12.5096 13.7744 12.5096 13.3903Z" fill="black"/>
<path d="M13.264 15.5168C13.264 15.6128 13.2572 15.7065 13.2457 15.8026C13.2549 15.7408 13.2617 15.6814 13.2709 15.6197C13.2457 15.8049 13.1954 15.9832 13.1268 16.1547C13.1497 16.0998 13.1726 16.045 13.1954 15.9901C13.1428 16.1113 13.0834 16.2279 13.0102 16.3354C13.0011 16.3491 12.9553 16.4337 12.9416 16.4337C12.9576 16.4337 13.0651 16.2805 12.9736 16.3902C12.9325 16.4405 12.889 16.4886 12.8433 16.5343C12.7976 16.58 12.7496 16.6235 12.6992 16.6646C12.6558 16.7012 12.5689 16.7447 12.7427 16.6326C12.713 16.6509 12.6855 16.6738 12.6558 16.6921C12.5415 16.7675 12.4226 16.8315 12.2968 16.8841C12.3517 16.8613 12.4066 16.8384 12.4614 16.8155C12.2899 16.8864 12.1116 16.9344 11.9264 16.9596C11.9881 16.9504 12.0476 16.9436 12.1093 16.9344C11.9195 16.9596 11.7274 16.9596 11.5377 16.9344C11.5994 16.9436 11.6589 16.9504 11.7206 16.9596C11.5354 16.9344 11.357 16.8841 11.1855 16.8155C11.2404 16.8384 11.2953 16.8613 11.3502 16.8841C11.229 16.8315 11.1124 16.7721 11.0049 16.6989C10.9912 16.6898 10.9066 16.644 10.9066 16.6303C10.9066 16.6463 11.0598 16.7538 10.95 16.6623C10.8997 16.6212 10.8517 16.5777 10.806 16.532C10.7602 16.4863 10.7168 16.4383 10.6756 16.3879C10.639 16.3445 10.5956 16.2576 10.7076 16.4314C10.6893 16.4017 10.6665 16.3742 10.6482 16.3445C10.5727 16.2302 10.5087 16.1113 10.4561 15.9855C10.479 16.0404 10.5018 16.0953 10.5247 16.1501C10.4538 15.9786 10.4058 15.8003 10.3806 15.6151C10.3898 15.6768 10.3967 15.7363 10.4058 15.798C10.3806 15.6082 10.3806 15.4161 10.4058 15.2264C10.3967 15.2881 10.3898 15.3475 10.3806 15.4093C10.4058 15.2241 10.4561 15.0457 10.5247 14.8742C10.5018 14.9291 10.479 14.984 10.4561 15.0389C10.5087 14.9177 10.5681 14.8011 10.6413 14.6936C10.6505 14.6799 10.6962 14.5953 10.7099 14.5953C10.6939 14.5953 10.5864 14.7485 10.6779 14.6387C10.7191 14.5884 10.7625 14.5404 10.8082 14.4947C10.854 14.4489 10.902 14.4055 10.9523 14.3643C10.9957 14.3277 11.0826 14.2843 10.9089 14.3963C10.9386 14.378 10.966 14.3552 10.9957 14.3369C11.1101 14.2614 11.229 14.1974 11.3547 14.1448C11.2999 14.1677 11.245 14.1905 11.1901 14.2134C11.3616 14.1425 11.5399 14.0945 11.7252 14.0693C11.6634 14.0785 11.604 14.0854 11.5422 14.0945C11.732 14.0693 11.9241 14.0693 12.1139 14.0945C12.0521 14.0854 11.9927 14.0785 11.931 14.0693C12.1162 14.0945 12.2945 14.1448 12.466 14.2134C12.4111 14.1905 12.3563 14.1677 12.3014 14.1448C12.4226 14.1974 12.5392 14.2568 12.6467 14.33C12.6604 14.3392 12.745 14.3849 12.745 14.3986C12.745 14.3826 12.5918 14.2751 12.7015 14.3666C12.7518 14.4078 12.7999 14.4512 12.8456 14.4969C12.8913 14.5427 12.9348 14.5907 12.9759 14.641C13.0125 14.6844 13.056 14.7713 12.9439 14.5975C12.9622 14.6273 12.9851 14.6547 13.0034 14.6844C13.0788 14.7988 13.1428 14.9177 13.1954 15.0434C13.1726 14.9886 13.1497 14.9337 13.1268 14.8788C13.1977 15.0503 13.2457 15.2286 13.2709 15.4139C13.2617 15.3521 13.2549 15.2927 13.2457 15.2309C13.2572 15.327 13.264 15.4207 13.264 15.5168C13.2663 15.8758 13.5773 16.2187 13.95 16.2027C14.3204 16.1867 14.6383 15.9009 14.636 15.5168C14.6314 14.9611 14.4691 14.3849 14.1421 13.9299C13.7831 13.4314 13.3166 13.0724 12.7404 12.8597C11.6886 12.471 10.3898 12.8232 9.68324 13.6943C9.28995 14.1791 9.06129 14.7302 9.01556 15.3567C8.9744 15.9055 9.12303 16.484 9.40428 16.9527C9.68095 17.4146 10.1063 17.8216 10.6002 18.0457C11.181 18.3087 11.7869 18.3864 12.4157 18.2629C13.7031 18.0114 14.6268 16.8041 14.636 15.5145C14.6383 15.1555 14.3181 14.8125 13.95 14.8285C13.575 14.8468 13.2663 15.1326 13.264 15.5168Z" fill="black"/>
<path d="M20.4784 30.0297C20.4784 29.0853 20.4784 28.1387 20.4784 27.1943C20.4784 27.0594 20.4784 26.9245 20.4784 26.7919C20.4784 26.4329 20.1628 26.0899 19.7924 26.1059C19.4197 26.1219 19.1064 26.4077 19.1064 26.7919C19.1064 27.7362 19.1064 28.6829 19.1064 29.6272C19.1064 29.7621 19.1064 29.897 19.1064 30.0297C19.1064 30.3887 19.422 30.7316 19.7924 30.7156C20.1651 30.6973 20.4784 30.4138 20.4784 30.0297Z" fill="black"/>
<path d="M20.4786 22.5366C20.4786 22.109 20.4786 21.6814 20.4786 21.2538C20.4786 20.234 20.4786 19.2141 20.4786 18.1966C20.4786 16.9573 20.4786 15.7157 20.4786 14.4763C20.4786 13.4108 20.4786 12.3452 20.4786 11.2797C20.4786 10.7584 20.4877 10.237 20.4786 9.71796C20.4786 9.7111 20.4786 9.70424 20.4786 9.69738C20.4786 9.33839 20.163 8.9954 19.7926 9.0114C19.4199 9.02741 19.1066 9.31323 19.1066 9.69738C19.1066 10.125 19.1066 10.5526 19.1066 10.9802C19.1066 12 19.1066 13.0198 19.1066 14.0373C19.1066 15.2766 19.1066 16.5183 19.1066 17.7576C19.1066 18.8231 19.1066 19.8887 19.1066 20.9542C19.1066 21.4756 19.0975 21.9969 19.1066 22.516C19.1066 22.5228 19.1066 22.5297 19.1066 22.5366C19.1066 22.8955 19.4222 23.2385 19.7926 23.2225C20.1653 23.2065 20.4786 22.9207 20.4786 22.5366Z" fill="black"/>
<path d="M21.2328 24.6631C21.2328 24.7592 21.2259 24.8529 21.2145 24.9489C21.2236 24.8872 21.2305 24.8278 21.2396 24.766C21.2145 24.9512 21.1642 25.1296 21.0956 25.3011C21.1185 25.2462 21.1413 25.1913 21.1642 25.1364C21.1116 25.2576 21.0521 25.3742 20.979 25.4817C20.9698 25.4954 20.9241 25.58 20.9104 25.58C20.9264 25.58 21.0339 25.4268 20.9424 25.5366C20.9012 25.5869 20.8578 25.6349 20.8121 25.6806C20.7663 25.7264 20.7183 25.7698 20.668 25.811C20.6246 25.8476 20.5377 25.891 20.7114 25.779C20.6817 25.7973 20.6543 25.8201 20.6246 25.8384C20.5102 25.9139 20.3913 25.9779 20.2656 26.0305C20.3204 26.0076 20.3753 25.9848 20.4302 25.9619C20.2587 26.0328 20.0803 26.0808 19.8951 26.106C19.9569 26.0968 20.0163 26.0899 20.0781 26.0808C19.8883 26.106 19.6962 26.106 19.5064 26.0808C19.5681 26.0899 19.6276 26.0968 19.6893 26.106C19.5041 26.0808 19.3258 26.0305 19.1543 25.9619C19.2092 25.9848 19.264 26.0076 19.3189 26.0305C19.1977 25.9779 19.0811 25.9185 18.9736 25.8453C18.9599 25.8361 18.8753 25.7904 18.8753 25.7767C18.8753 25.7927 19.0285 25.9002 18.9188 25.8087C18.8685 25.7675 18.8204 25.7241 18.7747 25.6784C18.729 25.6326 18.6855 25.5846 18.6444 25.5343C18.6078 25.4909 18.5643 25.404 18.6764 25.5778C18.6581 25.548 18.6352 25.5206 18.6169 25.4909C18.5415 25.3765 18.4774 25.2576 18.4249 25.1319C18.4477 25.1867 18.4706 25.2416 18.4935 25.2965C18.4226 25.125 18.3746 24.9467 18.3494 24.7614C18.3585 24.8232 18.3654 24.8826 18.3746 24.9444C18.3494 24.7546 18.3494 24.5625 18.3746 24.3727C18.3654 24.4345 18.3585 24.4939 18.3494 24.5556C18.3746 24.3704 18.4249 24.1921 18.4935 24.0206C18.4706 24.0755 18.4477 24.1303 18.4249 24.1852C18.4774 24.064 18.5369 23.9474 18.6101 23.8399C18.6192 23.8262 18.6649 23.7416 18.6787 23.7416C18.6627 23.7416 18.5552 23.8948 18.6467 23.7851C18.6878 23.7348 18.7313 23.6867 18.777 23.641C18.8227 23.5953 18.8707 23.5518 18.921 23.5107C18.9645 23.4741 19.0514 23.4306 18.8776 23.5427C18.9073 23.5244 18.9348 23.5015 18.9645 23.4832C19.0788 23.4078 19.1977 23.3438 19.3235 23.2912C19.2686 23.314 19.2137 23.3369 19.1589 23.3598C19.3303 23.2889 19.5087 23.2409 19.6939 23.2157C19.6322 23.2249 19.5727 23.2317 19.511 23.2409C19.7008 23.2157 19.8928 23.2157 20.0826 23.2409C20.0209 23.2317 19.9614 23.2249 19.8997 23.2157C20.0849 23.2409 20.2633 23.2912 20.4348 23.3598C20.3799 23.3369 20.325 23.314 20.2701 23.2912C20.3913 23.3438 20.5079 23.4032 20.6154 23.4764C20.6291 23.4855 20.7137 23.5313 20.7137 23.545C20.7137 23.529 20.5605 23.4215 20.6703 23.513C20.7206 23.5541 20.7686 23.5976 20.8143 23.6433C20.8601 23.689 20.9035 23.7371 20.9447 23.7874C20.9813 23.8308 21.0247 23.9177 20.9127 23.7439C20.931 23.7736 20.9538 23.8011 20.9721 23.8308C21.0476 23.9451 21.1116 24.064 21.1642 24.1898C21.1413 24.1349 21.1185 24.08 21.0956 24.0252C21.1665 24.1967 21.2145 24.375 21.2396 24.5602C21.2305 24.4985 21.2236 24.439 21.2145 24.3773C21.2259 24.4733 21.2328 24.5671 21.2328 24.6631C21.2351 25.0221 21.546 25.3651 21.9188 25.3491C22.2892 25.3331 22.607 25.0473 22.6047 24.6631C22.6002 24.1075 22.4378 23.5313 22.1108 23.0762C21.7518 22.5778 21.2854 22.2188 20.7092 22.0061C19.6573 21.6174 18.3585 21.9695 17.652 22.8407C17.2587 23.3255 17.03 23.8765 16.9843 24.5031C16.9431 25.0518 17.0918 25.6303 17.373 26.0991C17.6497 26.561 18.075 26.968 18.5689 27.1921C19.1497 27.455 19.7556 27.5328 20.3845 27.4093C21.6718 27.1578 22.5956 25.9505 22.6047 24.6608C22.607 24.3018 22.2869 23.9589 21.9188 23.9749C21.5438 23.9931 21.2351 24.279 21.2328 24.6631Z" fill="black"/>
<path d="M28.4473 30.0298C28.4473 29.7645 28.4473 29.497 28.4473 29.2318C28.4473 28.5915 28.4473 27.9536 28.4473 27.3133C28.4473 26.5404 28.4473 25.7653 28.4473 24.9924C28.4473 24.3225 28.4473 23.6525 28.4473 22.9848C28.4473 22.6578 28.4541 22.3308 28.4473 22.0061C28.4473 22.0016 28.4473 21.997 28.4473 21.9924C28.4473 21.6334 28.1317 21.2904 27.7613 21.3064C27.3886 21.3225 27.0753 21.6083 27.0753 21.9924C27.0753 22.2577 27.0753 22.5252 27.0753 22.7904C27.0753 23.4307 27.0753 24.0686 27.0753 24.7089C27.0753 25.4818 27.0753 26.2569 27.0753 27.0298C27.0753 27.6997 27.0753 28.3697 27.0753 29.0374C27.0753 29.3644 27.0685 29.6914 27.0753 30.0161C27.0753 30.0206 27.0753 30.0252 27.0753 30.0298C27.0753 30.3888 27.3909 30.7318 27.7613 30.7157C28.134 30.6975 28.4473 30.4139 28.4473 30.0298Z" fill="black"/>
<path d="M28.4473 17.7347C28.4473 17.4695 28.4473 17.202 28.4473 16.9367C28.4473 16.2965 28.4473 15.6585 28.4473 15.0183C28.4473 14.2454 28.4473 13.4702 28.4473 12.6974C28.4473 12.0274 28.4473 11.3574 28.4473 10.6898C28.4473 10.3628 28.4541 10.0358 28.4473 9.7111C28.4473 9.70653 28.4473 9.70195 28.4473 9.69738C28.4473 9.33839 28.1317 8.9954 27.7613 9.0114C27.3886 9.02741 27.0753 9.31323 27.0753 9.69738C27.0753 9.96262 27.0753 10.2302 27.0753 10.4954C27.0753 11.1356 27.0753 11.7736 27.0753 12.4138C27.0753 13.1867 27.0753 13.9619 27.0753 14.7347C27.0753 15.4047 27.0753 16.0747 27.0753 16.7423C27.0753 17.0693 27.0685 17.3963 27.0753 17.721C27.0753 17.7256 27.0753 17.7302 27.0753 17.7347C27.0753 18.0937 27.3909 18.4367 27.7613 18.4207C28.134 18.4047 28.4473 18.1189 28.4473 17.7347Z" fill="black"/>
<path d="M29.2015 19.8612C29.2015 19.9573 29.1947 20.051 29.1832 20.1471C29.1924 20.0853 29.1992 20.0259 29.2084 19.9641C29.1832 20.1493 29.1329 20.3277 29.0643 20.4992C29.0872 20.4443 29.1101 20.3894 29.1329 20.3346C29.0803 20.4558 29.0209 20.5724 28.9477 20.6798C28.9386 20.6936 28.8928 20.7782 28.8791 20.7782C28.8951 20.7782 29.0026 20.625 28.9111 20.7347C28.87 20.785 28.8265 20.833 28.7808 20.8788C28.7351 20.9245 28.6871 20.9679 28.6367 21.0091C28.5933 21.0457 28.5064 21.0891 28.6802 20.9771C28.6505 20.9954 28.623 21.0183 28.5933 21.0365C28.479 21.112 28.3601 21.176 28.2343 21.2286C28.2892 21.2058 28.3441 21.1829 28.3989 21.16C28.2274 21.2309 28.0491 21.2789 27.8639 21.3041C27.9256 21.2949 27.9851 21.2881 28.0468 21.2789C27.857 21.3041 27.6649 21.3041 27.4752 21.2789C27.5369 21.2881 27.5964 21.2949 27.6581 21.3041C27.4729 21.2789 27.2945 21.2286 27.123 21.16C27.1779 21.1829 27.2328 21.2058 27.2877 21.2286C27.1665 21.176 27.0499 21.1166 26.9424 21.0434C26.9287 21.0343 26.8441 20.9885 26.8441 20.9748C26.8441 20.9908 26.9973 21.0983 26.8875 21.0068C26.8372 20.9657 26.7892 20.9222 26.7435 20.8765C26.6977 20.8308 26.6543 20.7827 26.6131 20.7324C26.5765 20.689 26.5331 20.6021 26.6451 20.7759C26.6268 20.7461 26.604 20.7187 26.5857 20.689C26.5102 20.5747 26.4462 20.4558 26.3936 20.33C26.4165 20.3849 26.4393 20.4397 26.4622 20.4946C26.3913 20.3231 26.3433 20.1448 26.3181 19.9596C26.3273 20.0213 26.3342 20.0808 26.3433 20.1425C26.3181 19.9527 26.3181 19.7606 26.3433 19.5708C26.3342 19.6326 26.3273 19.692 26.3181 19.7538C26.3433 19.5686 26.3936 19.3902 26.4622 19.2187C26.4393 19.2736 26.4165 19.3285 26.3936 19.3833C26.4462 19.2622 26.5056 19.1455 26.5788 19.0381C26.588 19.0243 26.6337 18.9397 26.6474 18.9397C26.6314 18.9397 26.5239 19.0929 26.6154 18.9832C26.6566 18.9329 26.7 18.8849 26.7457 18.8391C26.7915 18.7934 26.8395 18.75 26.8898 18.7088C26.9332 18.6722 27.0201 18.6288 26.8464 18.7408C26.8761 18.7225 26.9035 18.6997 26.9332 18.6814C27.0476 18.6059 27.1665 18.5419 27.2922 18.4893C27.2374 18.5122 27.1825 18.535 27.1276 18.5579C27.2991 18.487 27.4774 18.439 27.6627 18.4138C27.6009 18.423 27.5415 18.4298 27.4797 18.439C27.6695 18.4138 27.8616 18.4138 28.0514 18.439C27.9896 18.4298 27.9302 18.423 27.8685 18.4138C28.0537 18.439 28.232 18.4893 28.4035 18.5579C28.3486 18.535 28.2938 18.5122 28.2389 18.4893C28.3601 18.5419 28.4767 18.6013 28.5842 18.6745C28.5979 18.6836 28.6825 18.7294 28.6825 18.7431C28.6825 18.7271 28.5293 18.6196 28.639 18.7111C28.6893 18.7522 28.7374 18.7957 28.7831 18.8414C28.8288 18.8872 28.8723 18.9352 28.9134 18.9855C28.95 19.0289 28.9935 19.1158 28.8814 18.942C28.8997 18.9718 28.9226 18.9992 28.9409 19.0289C29.0163 19.1433 29.0803 19.2622 29.1329 19.3879C29.1101 19.333 29.0872 19.2782 29.0643 19.2233C29.1352 19.3948 29.1832 19.5731 29.2084 19.7583C29.1992 19.6966 29.1924 19.6372 29.1832 19.5754C29.1947 19.6715 29.2015 19.7652 29.2015 19.8612C29.2038 20.2202 29.5148 20.5632 29.8875 20.5472C30.2579 20.5312 30.5758 20.2454 30.5735 19.8612C30.5689 19.3056 30.4066 18.7294 30.0796 18.2743C29.7206 17.7759 29.2541 17.4169 28.6779 17.2042C27.6261 16.8155 26.3273 17.1676 25.6207 18.0388C25.2274 18.5236 24.9988 19.0747 24.9531 19.7012C24.9119 20.25 25.0605 20.8285 25.3418 21.2972C25.6185 21.7591 26.0438 22.1661 26.5377 22.3902C27.1185 22.6532 27.7244 22.7309 28.3532 22.6074C29.6406 22.3559 30.5643 21.1486 30.5735 19.859C30.5758 19.5 30.2556 19.157 29.8875 19.173C29.5125 19.1913 29.2038 19.4771 29.2015 19.8612Z" fill="black"/>
</svg>
