<svg width="18" height="18" viewBox="0 0 18 18" fill="none" xmlns="http://www.w3.org/2000/svg">
<path id="Shape" fill-rule="evenodd" clip-rule="evenodd" d="M13.032 18H4.9668C2.2284 18 0 15.7716 0 13.032V4.9668C0 2.2284 2.2284 0 4.9668 0H13.032C15.7716 0 18 2.2284 18 4.9668V13.032C18 15.7716 15.7716 18 13.032 18ZM16.4028 13.032V4.9668C16.4028 3.108 14.8908 1.596 13.032 1.596H4.9668C3.1092 1.596 1.5972 3.108 1.5972 4.9668V13.032C1.5972 14.8908 3.1092 16.4028 4.9668 16.4028H13.032C14.8908 16.4028 16.4028 14.8908 16.4028 13.032ZM13.8324 5.3496C13.5252 5.3496 13.2228 5.2236 13.0056 5.0076C12.7872 4.7892 12.6612 4.4868 12.6612 4.1784C12.6612 3.87 12.7872 3.5676 13.0056 3.3504C13.2228 3.132 13.5252 3.0072 13.8324 3.0072C14.1408 3.0072 14.4432 3.132 14.6604 3.3504C14.8788 3.5676 15.0036 3.87 15.0036 4.1784C15.0036 4.4868 14.8788 4.7892 14.6604 5.0076C14.442 5.2236 14.1408 5.3496 13.8324 5.3496ZM9 13.638C6.4428 13.638 4.362 11.5572 4.362 9C4.362 6.4428 6.4428 4.362 9 4.362C11.5572 4.362 13.638 6.4428 13.638 9C13.638 11.5572 11.5572 13.638 9 13.638ZM9 5.9592C7.3224 5.9592 5.9592 7.3224 5.9592 9C5.9592 10.6764 7.3236 12.0408 9 12.0408C10.6764 12.0408 12.0408 10.6764 12.0408 9C12.0408 7.3224 10.6764 5.9592 9 5.9592Z" fill="white"/>
</svg>
