<svg width="23" height="30" viewBox="0 0 23 30" fill="none" xmlns="http://www.w3.org/2000/svg">
<path d="M19.8 17.9311L19.0074 17.3214L19.0064 17.3227L19.8 17.9311ZM11.4889 28.772L12.1948 29.4803L12.242 29.4332L12.2825 29.3804L11.4889 28.772ZM11.3667 28.8938L11.9654 29.6947L12.0223 29.6522L12.0726 29.6021L11.3667 28.8938ZM10.5111 28.772L11.3102 28.1706L11.3047 28.1635L10.5111 28.772ZM2.2 17.9311L2.99361 17.3227L2.9926 17.3214L2.2 17.9311ZM10.1444 15.7386L10.3607 14.7622L10.3498 14.7599L10.1444 15.7386ZM6.78333 10.7445L5.80493 10.5379L6.78333 10.7445ZM11.7944 15.7386L11.6092 14.7559L11.5936 14.7589L11.5782 14.7623L11.7944 15.7386ZM15.1556 10.7445L14.1712 10.9209L14.1722 10.9263L15.1556 10.7445ZM11.7944 7.39486L12.0033 6.4169L11.9998 6.41617L11.7944 7.39486ZM11 0C4.43435 0 -1 5.16225 -1 11.5972H1C1 6.33869 5.46565 2 11 2V0ZM23 11.5972C23 5.16225 17.5657 0 11 0V2C16.5343 2 21 6.33869 21 11.5972H23ZM20.5926 18.5409C22.124 16.5502 23 14.1458 23 11.5972H21C21 13.6773 20.2871 15.6579 19.0074 17.3214L20.5926 18.5409ZM12.2825 29.3804L20.5936 18.5396L19.0064 17.3227L10.6953 28.1635L12.2825 29.3804ZM12.0726 29.6021L12.1948 29.4803L10.783 28.0637L10.6608 28.1855L12.0726 29.6021ZM9.71209 29.3733C9.99935 29.755 10.4191 29.9321 10.775 29.9827C11.1311 30.0334 11.5831 29.9804 11.9654 29.6947L10.768 28.0928C10.9057 27.9898 11.0217 27.9977 11.0569 28.0027C11.0921 28.0077 11.2062 28.0326 11.3101 28.1707L9.71209 29.3733ZM1.40639 18.5396L9.7175 29.3804L11.3047 28.1635L2.99361 17.3227L1.40639 18.5396ZM-1 11.5972C-1 14.1458 -0.124038 16.5502 1.4074 18.5409L2.9926 17.3214C1.71293 15.6579 1 13.6773 1 11.5972H-1ZM10.3498 14.7599C8.53231 14.3786 7.39463 12.6891 7.76174 10.9512L5.80493 10.5379C5.19426 13.4287 7.11214 16.1242 9.9391 16.7173L10.3498 14.7599ZM11.5782 14.7623C11.1706 14.8525 10.7682 14.8525 10.3607 14.7623L9.92822 16.715C10.6206 16.8683 11.3182 16.8683 12.0107 16.715L11.5782 14.7623ZM14.1722 10.9263C14.5024 12.7126 13.3153 14.4343 11.6092 14.7559L11.9797 16.7213C14.7958 16.1904 16.6643 13.4051 16.1389 10.5628L14.1722 10.9263ZM11.5856 8.37281C12.939 8.66184 13.9442 9.654 14.1712 10.9209L16.1399 10.5682C15.7558 8.4245 14.0721 6.85871 12.0033 6.41691L11.5856 8.37281ZM7.76174 10.9512C8.14299 9.14643 9.83669 8.00587 11.5891 8.37355L11.9998 6.41617C9.10775 5.80939 6.40145 7.714 5.80493 10.5379L7.76174 10.9512Z" fill="white"/>
</svg>
