<svg width="11" height="7" viewBox="0 0 11 7" fill="none" xmlns="http://www.w3.org/2000/svg">
<path fill-rule="evenodd" clip-rule="evenodd" d="M4.20718 1.50001L3.85363 1.85357L2.70718 3.00001H9.50008H10.0001V4.00001H9.50008H2.70718L3.85363 5.14646L4.20718 5.50001L3.50008 6.20712L3.14652 5.85357L1.50008 4.20712L1.14652 3.85357L0.792969 3.50001L1.14652 3.14646L1.50008 2.79291L3.14652 1.14646L3.50008 0.792908L4.20718 1.50001Z" fill="#D8D8D8"/>
<path d="M3.85363 1.85357L3.50008 1.50001L3.50008 1.50001L3.85363 1.85357ZM4.20718 1.50001L4.56074 1.85357L4.91429 1.50001L4.56074 1.14646L4.20718 1.50001ZM2.70718 3.00001L2.35363 2.64646L1.50008 3.50001H2.70718V3.00001ZM10.0001 3.00001H10.5001V2.50001H10.0001V3.00001ZM10.0001 4.00001V4.50001H10.5001V4.00001H10.0001ZM2.70718 4.00001V3.50001H1.50008L2.35363 4.35357L2.70718 4.00001ZM3.85363 5.14646L3.50008 5.50001H3.50008L3.85363 5.14646ZM4.20718 5.50001L4.56074 5.85357L4.91429 5.50001L4.56074 5.14646L4.20718 5.50001ZM3.50008 6.20712L3.14652 6.56067L3.50008 6.91423L3.85363 6.56067L3.50008 6.20712ZM3.14652 5.85357L3.50008 5.50001L3.14652 5.85357ZM1.50008 4.20712L1.14652 4.56067H1.14652L1.50008 4.20712ZM1.14652 3.85357L1.50008 3.50001L1.50008 3.50001L1.14652 3.85357ZM0.792969 3.50001L0.439415 3.14646L0.0858619 3.50001L0.439415 3.85357L0.792969 3.50001ZM1.14652 3.14646L1.50008 3.50001H1.50008L1.14652 3.14646ZM1.50008 2.79291L1.14652 2.43935H1.14652L1.50008 2.79291ZM3.14652 1.14646L3.50008 1.50001V1.50001L3.14652 1.14646ZM3.50008 0.792908L3.85363 0.439354L3.50008 0.0858009L3.14652 0.439354L3.50008 0.792908ZM4.20718 2.20712L4.56074 1.85357L3.85363 1.14646L3.50008 1.50001L4.20718 2.20712ZM3.06074 3.35357L4.20718 2.20712L3.50008 1.50001L2.35363 2.64646L3.06074 3.35357ZM9.50008 2.50001H2.70718V3.50001H9.50008V2.50001ZM10.0001 2.50001H9.50008V3.50001H10.0001V2.50001ZM10.5001 4.00001V3.00001H9.50008V4.00001H10.5001ZM9.50008 4.50001H10.0001V3.50001H9.50008V4.50001ZM2.70718 4.50001H9.50008V3.50001H2.70718V4.50001ZM4.20718 4.79291L3.06074 3.64646L2.35363 4.35357L3.50008 5.50001L4.20718 4.79291ZM4.56074 5.14646L4.20718 4.79291L3.50008 5.50001L3.85363 5.85357L4.56074 5.14646ZM3.85363 6.56067L4.56074 5.85357L3.85363 5.14646L3.14652 5.85357L3.85363 6.56067ZM2.79297 6.20712L3.14652 6.56067L3.85363 5.85357L3.50008 5.50001L2.79297 6.20712ZM1.14652 4.56067L2.79297 6.20712L3.50008 5.50001L1.85363 3.85357L1.14652 4.56067ZM0.792969 4.20712L1.14652 4.56067L1.85363 3.85357L1.50008 3.50001L0.792969 4.20712ZM0.439415 3.85357L0.792969 4.20712L1.50008 3.50001L1.14652 3.14646L0.439415 3.85357ZM0.792969 2.79291L0.439415 3.14646L1.14652 3.85357L1.50008 3.50001L0.792969 2.79291ZM1.14652 2.43935L0.792969 2.79291L1.50008 3.50001L1.85363 3.14646L1.14652 2.43935ZM2.79297 0.792908L1.14652 2.43935L1.85363 3.14646L3.50008 1.50001L2.79297 0.792908ZM3.14652 0.439354L2.79297 0.792908L3.50008 1.50001L3.85363 1.14646L3.14652 0.439354ZM4.56074 1.14646L3.85363 0.439354L3.14652 1.14646L3.85363 1.85357L4.56074 1.14646Z" fill="white"/>
</svg>
