<svg width="32" height="32" viewBox="0 0 32 32" fill="none" xmlns="http://www.w3.org/2000/svg">
<path d="M19.0028 16.012L14.1918 12.86C14.0696 12.78 13.9194 12.78 13.7973 12.86C13.6753 12.9399 13.6001 13.0876 13.6001 13.2477V19.5522C13.6001 19.712 13.6753 19.86 13.7973 19.9398C13.8584 19.9803 13.9265 20 13.9946 20C14.0627 20 14.1308 19.9799 14.1918 19.9398L19.0028 16.7879C19.1252 16.7078 19.2001 16.5601 19.2001 16.4001C19.2001 16.24 19.1249 16.0921 19.0028 16.012Z" fill="white"/>
<path fill-rule="evenodd" clip-rule="evenodd" d="M0 15.6C0 24.2019 6.99807 31.2 15.5996 31.2C24.2017 31.2 31.2 24.2019 31.2 15.6C31.2 6.99813 24.2017 0 15.5996 0C6.99807 0 0 6.99813 0 15.6ZM1.5386 15.6C1.5386 7.84667 7.84635 1.53861 15.5996 1.53861C23.3531 1.53861 29.6614 7.84642 29.6614 15.6C29.6614 23.3531 23.3531 29.6614 15.5996 29.6614C7.84635 29.6614 1.5386 23.3536 1.5386 15.6Z" fill="white"/>
</svg>
