<svg width="22" height="13" viewBox="0 0 22 13" fill="none" xmlns="http://www.w3.org/2000/svg">
<path id="Path" fill-rule="evenodd" clip-rule="evenodd" d="M10.7632 12.9825H12.0788C12.0788 12.9825 12.4762 12.9372 12.6786 12.7109C12.8663 12.502 12.859 12.112 12.859 12.112C12.859 12.112 12.8341 10.2615 13.6524 9.99131C14.4605 9.72695 15.4974 11.7615 16.596 12.5429C17.4261 13.1344 18.0581 12.9825 18.0581 12.9825L20.9958 12.9854C20.9958 12.9854 22.5327 12.8642 21.8038 11.6111C21.7437 11.5088 21.3801 10.6836 19.6186 8.98937C17.7766 7.21627 18.0243 7.50253 20.2434 4.43538C21.5942 2.56734 22.1353 1.42665 21.9651 0.93737C21.8053 0.472916 20.8183 0.553244 20.8183 0.553244L17.5038 0.551785C17.5038 0.551785 17.2574 0.526955 17.0756 0.639417C16.8981 0.750418 16.7837 1.03669 16.7837 1.03669C16.7837 1.03669 16.2601 2.50891 15.562 3.7387C14.0895 6.33263 13.4999 6.46993 13.2594 6.30926C12.6991 5.93245 12.8385 4.80053 12.8385 3.99575C12.8385 1.4807 13.2066 0.433479 12.1228 0.161818C11.7635 0.0727243 11.498 0.0128429 10.5784 0.00261908C9.39927 -0.0090653 8.39904 0.00699988 7.83439 0.293267C7.45747 0.4846 7.16709 0.911078 7.34455 0.934447C7.56307 0.965119 8.05733 1.0732 8.31984 1.44418C8.6601 1.92323 8.6469 2.99675 8.6469 2.99675C8.6469 2.99675 8.84196 5.95728 8.19224 6.32388C7.74641 6.57654 7.13482 6.06098 5.82221 3.70803C5.14902 2.50162 4.64158 1.14477 4.64158 1.14477C4.64158 1.14477 4.54332 0.895013 4.3688 0.762102C4.15613 0.599982 3.85988 0.548863 3.85988 0.548863L0.716932 0.550325C0.716932 0.550325 0.244682 0.563468 0.0716217 0.776708C-0.0823724 0.966579 0.0598897 1.35801 0.0598897 1.35801C0.0598897 1.35801 2.52087 7.37546 5.30742 10.3842C7.86226 13.1446 10.7632 12.9825 10.7632 12.9825Z" fill="white"/>
</svg>
