<svg width="21" height="18" viewBox="0 0 21 18" fill="none" xmlns="http://www.w3.org/2000/svg">
<path id="Favorit Copy 2" fill-rule="evenodd" clip-rule="evenodd" d="M10.5 2.41727C11.6812 0.776978 13.1688 0 15.1375 0C18.375 0 21 2.80576 21 6.25899C21 9.45327 18.6813 11.4388 16.3625 13.3382C16.1548 13.4845 15.9672 13.6508 15.7723 13.8235C15.68 13.9053 15.586 13.9886 15.4875 14.0719L14.6125 14.8489C12.425 16.8345 11.6375 17.5252 11.2 17.7842C10.9812 17.9137 10.7625 18 10.5 18C10.2813 18 10.0188 17.9137 9.79997 17.7842C9.42316 17.5611 8.65676 16.8896 7.2212 15.6318C6.99019 15.4294 6.74184 15.2118 6.475 14.9785L5.46875 14.1151C5.20625 13.8562 4.9 13.5971 4.6375 13.3813C2.3625 11.4388 0 9.41007 0 6.25899C0 2.80576 2.625 0 5.8625 0.0431656C7.83125 0.0431656 9.31875 0.820145 10.5 2.41727ZM19.6875 6.25899C19.6875 3.53957 17.6313 1.29496 15.1375 1.29496C13.3 1.29496 12.2937 2.15827 11.5938 3.15108C11.1224 3.78742 10.8762 4.24336 10.7273 4.51889C10.6137 4.72932 10.5568 4.83453 10.5 4.83453C10.4432 4.83453 10.3863 4.72932 10.2727 4.51889C10.1238 4.24336 9.87755 3.78742 9.40622 3.15108C8.70628 2.15827 7.7 1.29496 5.8625 1.29496C3.36875 1.29496 1.3125 3.53957 1.3125 6.25899C1.3125 8.88749 3.34735 10.616 5.56344 12.4984C5.82206 12.7181 6.08314 12.9399 6.34375 13.1654C6.72621 13.5035 7.09124 13.8272 7.43543 14.1324C8.98117 15.5032 10.1064 16.5011 10.5 16.7482C10.8318 16.5518 11.6415 15.8341 13.0819 14.5575C13.541 14.1507 14.0641 13.6871 14.6562 13.1654C14.9518 12.9051 15.2493 12.6497 15.5439 12.3968C17.6915 10.5534 19.6875 8.84012 19.6875 6.25899Z" fill="#1E8A47"/>
</svg>
