<svg width="26" height="26" viewBox="0 0 26 26" fill="none" xmlns="http://www.w3.org/2000/svg">
<path fill-rule="evenodd" clip-rule="evenodd" d="M0 13C0 5.82729 5.82732 0 13 0C20.1727 0 26 5.82729 26 13C26 20.1727 20.1727 26 13 26C5.82732 26 0 20.1727 0 13ZM24.8182 13C24.8182 6.46599 19.534 1.18182 13 1.18182C6.46603 1.18182 1.18182 6.46599 1.18182 13C1.18182 19.534 6.46603 24.8182 13 24.8182C19.534 24.8182 24.8182 19.534 24.8182 13Z" fill="white"/>
<path d="M7.7793 13.4375V17H6.7832V8.43359H9.13281C10.1836 8.43359 10.959 8.63477 11.459 9.03711C11.9629 9.43945 12.2148 10.0449 12.2148 10.8535C12.2148 11.9863 11.6406 12.752 10.4922 13.1504L12.8184 17H11.6406L9.56641 13.4375H7.7793ZM7.7793 12.582H9.14453C9.84766 12.582 10.3633 12.4434 10.6914 12.166C11.0195 11.8848 11.1836 11.4648 11.1836 10.9062C11.1836 10.3398 11.0156 9.93164 10.6797 9.68164C10.3477 9.43164 9.8125 9.30664 9.07422 9.30664H7.7793V12.582ZM14.9688 10.5781V14.7441C14.9688 15.2676 15.0879 15.6582 15.3262 15.916C15.5645 16.1738 15.9375 16.3027 16.4453 16.3027C17.1172 16.3027 17.6074 16.1191 17.916 15.752C18.2285 15.3848 18.3848 14.7852 18.3848 13.9531V10.5781H19.3574V17H18.5547L18.4141 16.1387H18.3613C18.1621 16.4551 17.8848 16.6973 17.5293 16.8652C17.1777 17.0332 16.7754 17.1172 16.3223 17.1172C15.541 17.1172 14.9551 16.9316 14.5645 16.5605C14.1777 16.1895 13.9844 15.5957 13.9844 14.7793V10.5781H14.9688Z" fill="white"/>
</svg>
