<svg width="121" height="19" viewBox="0 0 121 19" fill="none" xmlns="http://www.w3.org/2000/svg">
<g opacity="0.219">
<path d="M6.735 11.6101L4.89 13.5751V17.9401H0V0.495117H4.89V7.74012L11.64 0.495117H17.07L9.945 8.22012L17.445 17.9401H11.715L6.735 11.6101Z" fill="black"/>
<path fill-rule="evenodd" clip-rule="evenodd" d="M16.6052 13.8748C17.4452 15.2548 18.6002 16.3348 20.0702 17.1148C21.5402 17.8948 23.1902 18.2848 25.0352 18.2848C26.8802 18.2848 28.5302 17.8948 30.0002 17.1148C31.4702 16.3348 32.6252 15.2548 33.4652 13.8748C34.3052 12.4948 34.7252 10.9348 34.7252 9.20977C34.7252 7.46977 34.3052 5.92477 33.4652 4.54477C32.6252 3.16477 31.4702 2.08477 30.0002 1.30477C28.5302 0.524766 26.8802 0.134766 25.0352 0.134766C23.1902 0.134766 21.5402 0.524766 20.0702 1.30477C18.6002 2.08477 17.4452 3.16477 16.6052 4.54477C15.7652 5.92477 15.3452 7.48477 15.3452 9.20977C15.3452 10.9498 15.7652 12.4948 16.6052 13.8748ZM29.1302 11.8198C28.7102 12.5698 28.1552 13.1548 27.4352 13.5748C26.7152 13.9948 25.9202 14.2048 25.0502 14.2048C24.1802 14.2048 23.3852 13.9948 22.6652 13.5748C21.9452 13.1548 21.3902 12.5698 20.9702 11.8198C20.5502 11.0548 20.3402 10.1848 20.3402 9.20977C20.3402 8.21977 20.5502 7.34977 20.9702 6.59977C21.3902 5.84977 21.9452 5.26477 22.6652 4.84477C23.3702 4.42477 24.1652 4.21477 25.0502 4.21477C25.9202 4.21477 26.7152 4.42477 27.4352 4.84477C28.1552 5.26477 28.7102 5.84977 29.1302 6.59977C29.5502 7.36477 29.7602 8.23477 29.7602 9.20977C29.7602 10.1998 29.5502 11.0698 29.1302 11.8198Z" fill="black"/>
<path d="M54.255 10.7701V17.9401H48.66H48.36L40.665 8.64012V17.9401H35.835V0.495117H39.9L47.595 9.79512V0.495117H54.06L49.605 10.7701H54.255Z" fill="black"/>
<path d="M66.8999 0.495117V4.41012H61.5749V17.9401H59.0099H54.4949L58.8599 7.66512L54.2549 7.68012V0.495117H66.8999Z" fill="black"/>
<path fill-rule="evenodd" clip-rule="evenodd" d="M66.99 13.8748C67.83 15.2548 68.985 16.3348 70.455 17.1148C71.925 17.8948 73.575 18.2848 75.42 18.2848C77.265 18.2848 78.915 17.8948 80.385 17.1148C81.855 16.3348 83.01 15.2548 83.85 13.8748C84.69 12.4948 85.11 10.9348 85.11 9.20977C85.11 7.46977 84.69 5.92477 83.85 4.54477C83.01 3.16477 81.855 2.08477 80.385 1.30477C78.915 0.524766 77.265 0.134766 75.42 0.134766C73.575 0.134766 71.925 0.524766 70.455 1.30477C68.985 2.08477 67.83 3.16477 66.99 4.54477C66.15 5.92477 65.73 7.48477 65.73 9.20977C65.73 10.9498 66.15 12.4948 66.99 13.8748ZM79.515 11.8198C79.095 12.5698 78.54 13.1548 77.82 13.5748C77.1 13.9948 76.305 14.2048 75.435 14.2048C74.565 14.2048 73.77 13.9948 73.05 13.5748C72.33 13.1548 71.775 12.5698 71.355 11.8198C70.935 11.0548 70.725 10.1848 70.725 9.20977C70.725 8.21977 70.935 7.34977 71.355 6.59977C71.775 5.84977 72.33 5.26477 73.05 4.84477C73.755 4.42477 74.55 4.21477 75.435 4.21477C76.305 4.21477 77.1 4.42477 77.82 4.84477C78.54 5.26477 79.095 5.84977 79.515 6.59977C79.935 7.36477 80.145 8.23477 80.145 9.20977C80.145 10.1998 79.935 11.0698 79.515 11.8198Z" fill="black"/>
<path fill-rule="evenodd" clip-rule="evenodd" d="M113.25 0.495117H108.39L101.31 16.5151L98.5202 12.4501C99.6152 11.9101 100.455 11.1901 101.055 10.2451C101.64 9.30012 101.94 8.20512 101.94 6.94512C101.94 5.64012 101.625 4.48512 100.995 3.52512C100.365 2.55012 99.4652 1.80012 98.3102 1.27512C97.1402 0.750117 95.7752 0.495117 94.2002 0.495117H86.2202V17.9401H91.1552V13.3051H93.8402L97.0052 17.9401H105.72L107.1 14.5501H114.48L115.845 17.9401H120.975L113.25 0.495117ZM96.1802 8.83512C95.6702 9.27012 94.9052 9.49512 93.8852 9.49512H91.1402V4.38012H93.8852C94.9052 4.38012 95.6702 4.60512 96.1802 5.05512C96.6902 5.50512 96.9452 6.13512 96.9452 6.94512C96.9602 7.77012 96.6902 8.40012 96.1802 8.83512ZM110.79 5.34012L108.54 10.9201H113.04L110.79 5.34012Z" fill="black"/>
</g>
</svg>
