<svg width="12" height="21" viewBox="0 0 12 21" fill="none" xmlns="http://www.w3.org/2000/svg">
<path fill-rule="evenodd" clip-rule="evenodd" d="M2.14796 0H9.88627C11.0041 0.00123126 11.91 0.919708 11.9112 2.05309V18.9469C11.91 20.0803 11.0041 20.9988 9.88627 21H2.14796C1.03014 20.9988 0.124261 20.0803 0.123047 18.9469V2.05309C0.124261 0.919708 1.03014 0.00123126 2.14796 0ZM11.0298 4.00293H1.0044V16.0017H11.0298V4.00293ZM2.14796 0.881356H9.88627C10.5178 0.881356 11.0298 1.39334 11.0298 2.02492V3.00531H1.0044V2.02492C1.0044 1.39334 1.51639 0.881356 2.14796 0.881356ZM1.0044 18.7945C1.0044 19.4666 1.51639 20.0114 2.14796 20.0114H9.88627C10.5178 20.0114 11.0298 19.4666 11.0298 18.7945V17.0114H1.0044V18.7945Z" fill="white"/>
</svg>
