<svg width="9" height="26" viewBox="0 0 9 26" fill="none" xmlns="http://www.w3.org/2000/svg">
<path fill-rule="evenodd" clip-rule="evenodd" d="M4.5 0.5L4.5 25.5L4.5 0.5Z" fill="white"/>
<path d="M5 0.5V0L4 0V0.5L5 0.5ZM4.14645 25.8536C4.34171 26.0488 4.65829 26.0488 4.85355 25.8536L8.03553 22.6716C8.2308 22.4763 8.2308 22.1597 8.03553 21.9645C7.84027 21.7692 7.52369 21.7692 7.32843 21.9645L4.5 24.7929L1.67157 21.9645C1.47631 21.7692 1.15973 21.7692 0.964466 21.9645C0.769204 22.1597 0.769204 22.4763 0.964466 22.6716L4.14645 25.8536ZM4 0.5L4 25.5H5L5 0.5L4 0.5Z" fill="white"/>
</svg>
