<svg width="26" height="26" viewBox="0 0 26 26" fill="none" xmlns="http://www.w3.org/2000/svg">
<path id="Shape Copy 3" fill-rule="evenodd" clip-rule="evenodd" d="M0 13C0 5.82729 5.82732 0 13 0C20.1727 0 26 5.82729 26 13C26 20.1727 20.1727 26 13 26C5.82732 26 0 20.1727 0 13ZM24.8182 13C24.8182 6.46599 19.534 1.18182 13 1.18182C6.46603 1.18182 1.18182 6.46599 1.18182 13C1.18182 19.534 6.46603 24.8182 13 24.8182C19.534 24.8182 24.8182 19.534 24.8182 13ZM17.6626 7.68182C17.6218 7.68684 17.5815 7.69613 17.5426 7.70952L6.90625 11.255C6.67154 11.333 6.51024 11.5489 6.502 11.7961C6.49376 12.0433 6.64033 12.2695 6.86932 12.3629L11.6612 14.3388L13.6371 19.1307C13.7305 19.3597 13.9567 19.5062 14.2039 19.498C14.4511 19.4898 14.667 19.3285 14.745 19.0938L18.2905 8.45739C18.355 8.26567 18.317 8.05428 18.1897 7.89706C18.0624 7.73983 17.8636 7.65863 17.6626 7.68182ZM14.1172 17.2102L16.7855 9.19602L8.78054 11.8736L12.3352 13.3324C12.4819 13.3924 12.5984 13.5088 12.6584 13.6555L14.1172 17.2102Z" fill="black"/>
</svg>
