<svg width="21" height="21" viewBox="0 0 21 21" fill="none" xmlns="http://www.w3.org/2000/svg">
<path id="Combined Shape Copy 2" fill-rule="evenodd" clip-rule="evenodd" d="M8.65768 17.2973C3.89596 17.2973 0 13.4054 0 8.64864C0 3.89189 3.89596 0 8.65768 0C13.4194 0 17.3154 3.89189 17.3154 8.64864C17.3154 10.8082 16.5124 12.7895 15.1899 14.3093L20.6052 19.719C20.865 19.9784 20.865 20.3676 20.6052 20.627C20.5186 20.7567 20.3454 20.8 20.1723 20.8C19.9992 20.8 19.826 20.7567 19.6962 20.627L14.2777 15.2142C12.7625 16.5113 10.7975 17.2973 8.65768 17.2973ZM8.65768 1.2973C4.58858 1.2973 1.29866 4.58378 1.29866 8.64864C1.29866 12.7135 4.58858 16 8.65768 16C12.7268 16 16.0167 12.7135 16.0167 8.64864C16.0167 4.58378 12.7268 1.2973 8.65768 1.2973Z" fill="white"/>
</svg>
