<svg width="40" height="40" viewBox="0 0 40 40" fill="none" xmlns="http://www.w3.org/2000/svg">
<path d="M17.3336 11.293L17.6871 10.9394L17.3336 10.5859L16.98 10.9394L17.3336 11.293ZM17.6871 11.6465L17.3336 12.0001L17.3336 12.0001L17.6871 11.6465ZM16.6265 12.0001L16.2729 11.6465L15.9194 12.0001L16.2729 12.3536L16.6265 12.0001ZM16.98 12.3536L17.3336 12.0001L17.3336 12.0001L16.98 12.3536ZM24.6265 20.0001L24.98 20.3536L25.3336 20.0001L24.98 19.6465L24.6265 20.0001ZM16.98 27.6465L17.3336 28.0001H17.3336L16.98 27.6465ZM16.6265 28.0001L16.2729 27.6465L15.9194 28.0001L16.2729 28.3536L16.6265 28.0001ZM17.3336 28.7072L16.98 29.0607L17.3336 29.4143L17.6871 29.0607L17.3336 28.7072ZM17.6871 28.3536L17.3336 28.0001H17.3336L17.6871 28.3536ZM25.3336 20.7072L25.6871 21.0607L25.6871 21.0607L25.3336 20.7072ZM25.6871 20.3536L25.3336 20.0001L25.3336 20.0001L25.6871 20.3536ZM26.0407 20.0001L26.3942 20.3536L26.7478 20.0001L26.3942 19.6465L26.0407 20.0001ZM25.6871 19.6465L25.3336 20.0001V20.0001L25.6871 19.6465ZM25.3336 19.293L25.6871 18.9394L25.6871 18.9394L25.3336 19.293ZM16.98 11.6465L17.3336 12.0001L18.0407 11.293L17.6871 10.9394L16.98 11.6465ZM16.98 12.3536L17.6871 11.6465L16.98 10.9394L16.2729 11.6465L16.98 12.3536ZM17.3336 12.0001L16.98 11.6465L16.2729 12.3536L16.6265 12.7072L17.3336 12.0001ZM24.98 19.6465L17.3336 12.0001L16.6265 12.7072L24.2729 20.3536L24.98 19.6465ZM24.2729 19.6465L16.6265 27.293L17.3336 28.0001L24.98 20.3536L24.2729 19.6465ZM16.6265 27.293L16.2729 27.6465L16.98 28.3536L17.3336 28.0001L16.6265 27.293ZM16.2729 28.3536L16.98 29.0607L17.6871 28.3536L16.98 27.6465L16.2729 28.3536ZM17.6871 29.0607L18.0407 28.7072L17.3336 28.0001L16.98 28.3536L17.6871 29.0607ZM18.0407 28.7072L25.6871 21.0607L24.98 20.3536L17.3336 28.0001L18.0407 28.7072ZM25.3336 20.0001L24.98 20.3536L25.6871 21.0607L26.0407 20.7072L25.3336 20.0001ZM25.6871 19.6465L25.3336 20.0001L26.0407 20.7072L26.3942 20.3536L25.6871 19.6465ZM25.3336 20.0001L25.6871 20.3536L26.3942 19.6465L26.0407 19.293L25.3336 20.0001ZM24.98 19.6465L25.3336 20.0001L26.0407 19.293L25.6871 18.9394L24.98 19.6465ZM17.3336 12.0001L24.98 19.6465L25.6871 18.9394L18.0407 11.293L17.3336 12.0001Z" fill="#999999"/>
<circle cx="20" cy="20" r="19.5" stroke="#999999"/>
</svg>
