<svg width="121" height="19" viewBox="0 0 121 19" fill="none" xmlns="http://www.w3.org/2000/svg">
<g opacity="0.219">
<path d="M6.735 11.61L4.89 13.575V17.94H0V0.494995H4.89V7.74L11.64 0.494995H17.07L9.945 8.22L17.445 17.94H11.715L6.735 11.61Z" fill="black"/>
<path fill-rule="evenodd" clip-rule="evenodd" d="M16.6052 13.875C17.4452 15.255 18.6002 16.335 20.0702 17.115C21.5402 17.895 23.1902 18.285 25.0352 18.285C26.8802 18.285 28.5302 17.895 30.0002 17.115C31.4702 16.335 32.6252 15.255 33.4652 13.875C34.3052 12.495 34.7252 10.935 34.7252 9.21001C34.7252 7.47001 34.3052 5.92501 33.4652 4.54501C32.6252 3.16501 31.4702 2.08501 30.0002 1.30501C28.5302 0.52501 26.8802 0.13501 25.0352 0.13501C23.1902 0.13501 21.5402 0.52501 20.0702 1.30501C18.6002 2.08501 17.4452 3.16501 16.6052 4.54501C15.7652 5.92501 15.3452 7.48501 15.3452 9.21001C15.3452 10.95 15.7652 12.495 16.6052 13.875ZM29.1302 11.82C28.7102 12.57 28.1552 13.155 27.4352 13.575C26.7152 13.995 25.9202 14.205 25.0502 14.205C24.1802 14.205 23.3852 13.995 22.6652 13.575C21.9452 13.155 21.3902 12.57 20.9702 11.82C20.5502 11.055 20.3402 10.185 20.3402 9.21001C20.3402 8.22001 20.5502 7.35001 20.9702 6.60001C21.3902 5.85001 21.9452 5.26501 22.6652 4.84501C23.3702 4.42501 24.1652 4.21501 25.0502 4.21501C25.9202 4.21501 26.7152 4.42501 27.4352 4.84501C28.1552 5.26501 28.7102 5.85001 29.1302 6.60001C29.5502 7.36501 29.7602 8.23501 29.7602 9.21001C29.7602 10.2 29.5502 11.07 29.1302 11.82Z" fill="black"/>
<path d="M54.255 10.77V17.94H48.66H48.36L40.665 8.64V17.94H35.835V0.494995H39.9L47.595 9.795V0.494995H54.06L49.605 10.77H54.255Z" fill="black"/>
<path d="M66.8999 0.494995V4.41H61.5749V17.94H59.0099H54.4949L58.8599 7.665L54.2549 7.68V0.494995H66.8999Z" fill="black"/>
<path fill-rule="evenodd" clip-rule="evenodd" d="M66.99 13.875C67.83 15.255 68.985 16.335 70.455 17.115C71.925 17.895 73.575 18.285 75.42 18.285C77.265 18.285 78.915 17.895 80.385 17.115C81.855 16.335 83.01 15.255 83.85 13.875C84.69 12.495 85.11 10.935 85.11 9.21001C85.11 7.47001 84.69 5.92501 83.85 4.54501C83.01 3.16501 81.855 2.08501 80.385 1.30501C78.915 0.52501 77.265 0.13501 75.42 0.13501C73.575 0.13501 71.925 0.52501 70.455 1.30501C68.985 2.08501 67.83 3.16501 66.99 4.54501C66.15 5.92501 65.73 7.48501 65.73 9.21001C65.73 10.95 66.15 12.495 66.99 13.875ZM79.515 11.82C79.095 12.57 78.54 13.155 77.82 13.575C77.1 13.995 76.305 14.205 75.435 14.205C74.565 14.205 73.77 13.995 73.05 13.575C72.33 13.155 71.775 12.57 71.355 11.82C70.935 11.055 70.725 10.185 70.725 9.21001C70.725 8.22001 70.935 7.35001 71.355 6.60001C71.775 5.85001 72.33 5.26501 73.05 4.84501C73.755 4.42501 74.55 4.21501 75.435 4.21501C76.305 4.21501 77.1 4.42501 77.82 4.84501C78.54 5.26501 79.095 5.85001 79.515 6.60001C79.935 7.36501 80.145 8.23501 80.145 9.21001C80.145 10.2 79.935 11.07 79.515 11.82Z" fill="black"/>
<path fill-rule="evenodd" clip-rule="evenodd" d="M113.25 0.494995H108.39L101.31 16.515L98.5202 12.45C99.6152 11.91 100.455 11.19 101.055 10.245C101.64 9.3 101.94 8.205 101.94 6.94499C101.94 5.64 101.625 4.485 100.995 3.525C100.365 2.54999 99.4652 1.8 98.3102 1.275C97.1402 0.749995 95.7752 0.494995 94.2002 0.494995H86.2202V17.94H91.1552V13.305H93.8402L97.0052 17.94H105.72L107.1 14.55H114.48L115.845 17.94H120.975L113.25 0.494995ZM96.1802 8.835C95.6702 9.26999 94.9052 9.495 93.8852 9.495H91.1402V4.38H93.8852C94.9052 4.38 95.6702 4.605 96.1802 5.055C96.6902 5.505 96.9452 6.13499 96.9452 6.94499C96.9602 7.77 96.6902 8.39999 96.1802 8.835ZM110.79 5.33999L108.54 10.92H113.04L110.79 5.33999Z" fill="black"/>
</g>
</svg>
