<svg width="120" height="39" viewBox="0 0 120 39" fill="none" xmlns="http://www.w3.org/2000/svg">
<path id="Fill 1" fill-rule="evenodd" clip-rule="evenodd" d="M17.7797 14.2811V10.4281H4.01443V6.54475C4.01443 4.96327 5.75251 4.15903 7.13203 4.14823H18.8605C19.5581 2.86267 20.2529 1.57567 20.9528 0.294067H7.13203C4.02559 0.309547 0.195186 2.11783 0.161346 5.65591V18.6195C0.195186 22.1572 4.02811 23.9619 7.13203 23.9813H20.9474L18.8943 20.1283H7.13203C5.74783 20.1283 4.01443 19.2974 4.01443 17.7307V14.2811H17.7797ZM45.5483 4.14823V0.294067H30.9521C28.0559 0.294067 23.9822 1.52707 23.9822 5.05651V9.52591C23.9822 10.6783 25.2004 11.6618 26.2369 11.9235L41.9818 15.9609C42.3238 16.0473 42.7191 16.3285 42.7191 16.718V17.7307C42.7191 19.2995 41.0757 20.1283 39.6847 20.1283H23.9822V23.9813H39.6847C42.7303 23.9615 46.4098 22.3549 46.4098 18.8405V14.8679C46.4098 13.7163 45.3367 12.7119 44.2765 12.4405L28.5329 8.43403C28.1701 8.34259 27.796 8.05027 27.796 7.64599V6.32407C27.796 4.74943 29.6504 4.14823 30.9521 4.14823H45.5483ZM110.448 23.9813V4.14823H119.754V0.294067H97.4099V4.14823H106.595V23.9813H110.448ZM62.1105 23.9813V4.14823H71.4169V0.294067H49.0731V4.14823H58.2578V23.9813H62.1105ZM106.224 37.4155H107.305L109.685 34.0793V37.4155H110.793V32.4107H109.713C108.917 33.5293 108.13 34.6478 107.343 35.7663V32.4107H106.224V37.4155ZM100.215 37.4155H101.295L103.675 34.0793V37.4155H104.783V32.4107H103.703C102.907 33.5293 102.12 34.6478 101.333 35.7663V32.4107H100.215V37.4155ZM95.7597 37.4155H96.9067V33.3968H99.3046V32.4107H95.7597V37.4155ZM91.93 36.5342C91.0394 36.5342 90.404 35.7947 90.404 34.9225C90.404 34.0318 90.9919 33.3115 91.9113 33.3115C92.8117 33.3115 93.4471 34.0412 93.4471 34.9225C93.4471 35.8045 92.8588 36.5342 91.93 36.5342ZM91.9113 37.5296C93.4561 37.5296 94.594 36.3448 94.594 34.9225C94.594 33.4724 93.4658 32.3067 91.93 32.3067C90.3946 32.3067 89.257 33.4915 89.257 34.9225C89.257 36.3632 90.3849 37.5296 91.9113 37.5296ZM83.5885 37.4723C84.6976 37.4723 85.3802 37.027 85.3802 33.3968H86.9444V37.4155H88.0913V32.4107H84.3092C84.3092 36.2213 83.911 36.5057 83.3325 36.5057C83.2569 36.5057 83.0765 36.4867 83.0009 36.4676L82.9156 37.4061C83.0863 37.4345 83.4085 37.4723 83.5885 37.4723ZM79.7969 36.5342C78.9059 36.5342 78.2709 35.7947 78.2709 34.9225C78.2709 34.0318 78.8588 33.3115 79.7779 33.3115C80.6786 33.3115 81.314 34.0412 81.314 34.9225C81.314 35.8045 80.7257 36.5342 79.7969 36.5342ZM79.7779 37.5296C81.323 37.5296 82.4602 36.3448 82.4602 34.9225C82.4602 33.4724 81.3327 32.3067 79.7969 32.3067C78.2616 32.3067 77.1239 33.4915 77.1239 34.9225C77.1239 36.3632 78.2522 37.5296 79.7779 37.5296ZM71.4557 37.4155H72.6027V35.3969H74.811V37.4155H75.9583V32.4107H74.811V34.4393H72.6027V32.4107H71.4557V37.4155ZM65.5222 37.4155H66.7444L67.9673 35.6619L69.1996 37.4155H70.4506L68.6024 34.8469L70.3747 32.4107H69.1521L67.9958 34.0603L66.8395 32.4107H65.5881L67.3607 34.8757L65.5222 37.4155ZM61.0949 34.5625C61.1993 33.7852 61.6922 33.2449 62.3935 33.2449C63.152 33.2449 63.5879 33.8234 63.6639 34.5625H61.0949ZM62.5263 37.5296C63.4457 37.5296 64.0999 37.1595 64.574 36.5911L63.9008 35.9938C63.5026 36.3823 63.1048 36.5911 62.5454 36.5911C61.8059 36.5911 61.2278 36.136 61.1043 35.321H64.7824C64.7918 35.2641 64.8015 35.0744 64.8015 34.9984C64.8015 33.5577 63.9955 32.3067 62.4032 32.3067C60.9718 32.3067 59.9577 33.4818 59.9577 34.9131C59.9577 36.4773 61.0759 37.5296 62.5263 37.5296ZM56.5546 37.4155H57.7106V33.3968H59.3227V32.4107H54.9433V33.3968H56.5546V37.4155ZM47.7771 34.5625C47.8811 33.7852 48.374 33.2449 49.0756 33.2449C49.8338 33.2449 50.2697 33.8234 50.3453 34.5625H47.7771ZM49.2081 37.5296C50.1275 37.5296 50.7813 37.1595 51.2558 36.5911L50.5826 35.9938C50.1844 36.3823 49.7866 36.5911 49.2272 36.5911C48.4874 36.5911 47.9096 36.136 47.7861 35.321H51.4642C51.4736 35.2641 51.4829 35.0744 51.4829 34.9984C51.4829 33.5577 50.6773 32.3067 49.0846 32.3067C47.6536 32.3067 46.6395 33.4818 46.6395 34.9131C46.6395 36.4773 47.758 37.5296 49.2081 37.5296ZM44.3265 37.4155H45.4738V32.4107H44.3265V37.4155ZM40.5253 36.4867V35.0557H41.4926C42.0797 35.0557 42.4214 35.3019 42.4214 35.7472C42.4214 36.2307 42.0895 36.4867 41.5113 36.4867H40.5253ZM39.3787 37.4155H41.6629C42.8383 37.4155 43.568 36.7808 43.568 35.7472C43.568 34.6571 42.7058 34.1647 41.5775 34.1647H40.5253V32.4107H39.3787V37.4155ZM33.4354 37.4155H34.582V35.3969H36.7906V37.4155H37.9379V32.4107H36.7906V34.4393H34.582V32.4107H33.4354V37.4155ZM29.6623 36.5248C28.8854 36.5248 28.2028 35.8898 28.2028 34.9225C28.2028 33.9461 28.8854 33.3017 29.6623 33.3017C30.4399 33.3017 31.094 33.9368 31.094 34.9037C31.094 35.9085 30.4496 36.5248 29.6623 36.5248ZM27.0843 38.9321H28.2313V36.6382C28.5815 37.103 29.1035 37.5199 29.9279 37.5199C31.1224 37.5199 32.26 36.5817 32.26 34.9225C32.26 33.2449 31.1131 32.3067 29.9279 32.3067C29.1223 32.3067 28.6006 32.7236 28.2313 33.2449V32.4107H27.0843V38.9321ZM22.2214 34.5625C22.3258 33.7852 22.8187 33.2449 23.5199 33.2449C24.2785 33.2449 24.7144 33.8234 24.7904 34.5625H22.2214ZM23.6528 37.5296C24.5726 37.5296 25.2263 37.1595 25.7001 36.5911L25.0269 35.9938C24.6291 36.3823 24.2309 36.5911 23.6719 36.5911C22.9324 36.5911 22.3543 36.136 22.2311 35.321H25.9089C25.9183 35.2641 25.9276 35.0744 25.9276 34.9984C25.9276 33.5577 25.1219 32.3067 23.5297 32.3067C22.0983 32.3067 21.0838 33.4818 21.0838 34.9131C21.0838 36.4773 22.2023 37.5296 23.6528 37.5296ZM16.8941 34.4771V33.2924H18.0886C18.6005 33.2924 18.8183 33.539 18.8183 33.8608C18.8183 34.2212 18.553 34.4771 18.0695 34.4771H16.8941ZM16.8941 36.5057V35.2544H18.1361C18.7521 35.2544 19.0459 35.501 19.0459 35.8613C19.0459 36.2498 18.7521 36.5057 18.193 36.5057H16.8941ZM15.7663 37.4155H18.3637C19.5009 37.4155 20.2115 36.9035 20.2115 36.0604C20.2115 35.3494 19.7853 34.9797 19.1787 34.8091C19.6053 34.6197 19.9844 34.2971 19.9844 33.6621C19.9844 32.8946 19.3306 32.4107 18.3352 32.4107H15.7663V37.4155ZM10.8371 36.4298C11.1309 35.8138 11.3019 34.97 11.3019 34.0603V33.3968H12.9511V36.4298H10.8371ZM9.12175 38.6193H10.079L10.1927 37.4155H13.6999V38.6193H14.6571L14.809 36.4298H14.0977V32.4107H10.2212V33.0271C10.2212 34.43 10.079 35.596 9.66175 36.4298H9.12175V38.6193ZM91.9865 14.2811V10.4281H78.2219V6.54475C78.2219 4.96327 79.96 4.15903 81.3388 4.14823H93.0673C93.7653 2.86267 94.4597 1.57567 95.1599 0.294067H81.3388C78.2327 0.309547 74.4027 2.11783 74.3685 5.65591V18.6195C74.4027 22.1572 78.2353 23.9619 81.3388 23.9813H95.1549L93.1022 20.1283H81.3388C79.9546 20.1283 78.2219 19.2974 78.2219 17.7307V14.2811H91.9865Z" fill="#3C3C3C"/>
</svg>
