<svg width="26" height="25" viewBox="0 0 26 25" fill="none" xmlns="http://www.w3.org/2000/svg">
<path id="Shape" fill-rule="evenodd" clip-rule="evenodd" d="M0 5.80616C0.331676 3.97346 1.82635 2.03681 3.30813 0.613501V0.613385C4.43068 -0.148692 5.56986 -0.262769 6.7286 0.625693L10.0991 3.85162C10.8798 4.62916 10.896 6.00912 10.3987 7.0775C10.054 7.55112 9.68846 8.02859 9.32375 8.50501C9.10602 8.78942 8.88859 9.07346 8.67602 9.35608C8.52827 9.90296 8.79654 10.4705 9.2253 10.999C9.77693 11.713 10.6084 12.5046 11.3736 13.233C11.5135 13.3662 11.6511 13.4972 11.7844 13.6253C12.6323 14.4399 13.6876 15.4285 14.6057 16.0597C14.6337 16.0788 14.663 16.0991 14.6936 16.1202C15.0894 16.3934 15.6863 16.8055 16.216 16.6232L18.488 15.0162C19.5832 14.4892 20.9384 14.4506 21.9834 15.28L25.3664 18.5299C26.1774 19.3364 26.2443 20.9087 25.3664 21.7559C24.0355 22.9609 21.8411 24.7601 20.061 24.9458C18.044 25.2401 15.9313 24.3042 13.8068 22.9071C11.6822 21.51 9.52912 19.5893 7.54004 17.6785C3.52368 13.8202 0.049984 9.64785 0 5.80616ZM8.96319 4.94269L5.60513 1.70473L5.60516 1.70469C5.16114 1.49765 4.84874 1.40839 4.40676 1.72854C2.8928 3.27366 1.8479 4.68766 1.61045 5.85389C1.69624 8.74489 4.78964 12.8654 8.67612 16.599C10.633 18.4789 12.7279 20.3351 14.7056 21.6357C16.6777 22.9325 18.5061 23.6195 19.8114 23.4345C20.9996 23.2099 22.1002 22.3312 23.1639 21.482C23.5315 21.1885 23.8946 20.8986 24.2555 20.6404C24.4282 20.2601 24.4749 19.9793 24.2305 19.609L20.8599 16.3711C20.3527 16.1188 19.8979 16.1099 19.3369 16.3231C19.1432 16.46 18.9493 16.5968 18.7555 16.7337C18.225 17.1082 17.6944 17.4827 17.1648 17.8584C16.1029 18.5345 14.6789 18.006 13.6695 17.3187C12.6487 16.6169 11.6438 15.6501 10.822 14.8592C10.7675 14.8068 10.7138 14.7552 10.6609 14.7044C10.492 14.5421 10.312 14.3731 10.1257 14.1983C9.39562 13.513 8.56959 12.7377 7.93954 11.9222C7.18109 10.9317 6.64706 9.7047 7.39027 8.44446L8.98815 6.34577C9.14752 5.85354 9.26308 5.40585 8.96319 4.94269Z" fill="white"/>
</svg>
