<svg width="9" height="26" viewBox="0 0 9 26" fill="none" xmlns="http://www.w3.org/2000/svg">
<path fill-rule="evenodd" clip-rule="evenodd" d="M4.5 25.5L4.5 0.5L4.5 25.5Z" fill="#D8D8D8"/>
<path d="M5 25.5V26H4V25.5H5ZM4.14645 0.146446C4.34171 -0.0488148 4.65829 -0.0488148 4.85355 0.146446L8.03553 3.32843C8.2308 3.52369 8.2308 3.84027 8.03553 4.03553C7.84027 4.2308 7.52369 4.2308 7.32843 4.03553L4.5 1.20711L1.67157 4.03553C1.47631 4.2308 1.15973 4.2308 0.964466 4.03553C0.769204 3.84027 0.769204 3.52369 0.964466 3.32843L4.14645 0.146446ZM4 25.5L4 0.5H5L5 25.5H4Z" fill="#1E8A47"/>
</svg>
