<svg width="24" height="24" viewBox="0 0 24 24" fill="none" xmlns="http://www.w3.org/2000/svg">
<path id="Shape" fill-rule="evenodd" clip-rule="evenodd" d="M0 24L1.687 17.837C0.646 16.033 0.099 13.988 0.1 11.891C0.103 5.335 5.438 0 11.993 0C15.174 0.001 18.16 1.24 20.406 3.488C22.651 5.736 23.887 8.724 23.886 11.902C23.883 18.459 18.548 23.794 11.993 23.794C10.003 23.793 8.042 23.294 6.305 22.346L0 24ZM6.597 20.193C8.273 21.188 9.873 21.784 11.989 21.785C17.437 21.785 21.875 17.351 21.878 11.9C21.88 6.438 17.463 2.01 11.997 2.008C6.545 2.008 2.11 6.442 2.108 11.892C2.107 14.117 2.759 15.783 3.854 17.526L2.855 21.174L6.597 20.193ZM17.5775 14.4619C17.7848 14.5619 17.9245 14.6293 17.984 14.729C18.059 14.853 18.059 15.448 17.811 16.143C17.563 16.837 16.376 17.471 15.805 17.556C15.293 17.632 14.645 17.664 13.933 17.438C13.502 17.301 12.948 17.118 12.239 16.812C9.458 15.6113 7.57778 12.9181 7.21703 12.4014C7.19108 12.3642 7.173 12.3383 7.163 12.325L7.15947 12.3203C6.9989 12.1056 5.95 10.7029 5.95 9.251C5.95 7.88419 6.62033 7.16763 6.93028 6.83632C6.95209 6.813 6.97212 6.79159 6.99 6.772C7.262 6.474 7.584 6.4 7.782 6.4L8.352 6.41C8.3732 6.41105 8.39526 6.41092 8.41806 6.41078C8.59104 6.40974 8.80719 6.40845 9.021 6.92C9.09715 7.10344 9.20629 7.36939 9.32302 7.65387C9.58493 8.29211 9.88512 9.02363 9.937 9.126C10.012 9.275 10.061 9.449 9.962 9.647C9.94673 9.67738 9.93266 9.70601 9.91922 9.73333C9.84466 9.88498 9.78995 9.99626 9.662 10.142C9.61217 10.2002 9.56078 10.2628 9.50943 10.3255C9.40723 10.4501 9.30519 10.5745 9.216 10.663C9.068 10.811 8.913 10.972 9.086 11.269C9.259 11.567 9.856 12.54 10.739 13.328C11.6873 14.1744 12.5121 14.5321 12.9309 14.7138C13.0134 14.7495 13.0801 14.7785 13.129 14.803C13.426 14.952 13.6 14.927 13.773 14.729C13.946 14.531 14.516 13.861 14.714 13.564C14.913 13.266 15.111 13.316 15.383 13.415C15.656 13.514 17.117 14.233 17.414 14.382C17.4724 14.4112 17.5269 14.4375 17.5775 14.4619Z" fill="#999999"/>
</svg>
