<svg width="20" height="16" viewBox="0 0 20 16" fill="none" xmlns="http://www.w3.org/2000/svg">
<path id="Shape" fill-rule="evenodd" clip-rule="evenodd" d="M3.8 0.50998C7.89194 -0.169993 12.0681 -0.169993 16.16 0.50998C18.5 0.93998 20 2.49998 20 4.48998V11.49C20 13.49 18.5 15.05 16.18 15.49C14.1374 15.8289 12.0705 15.9995 10 16C7.93585 15.9966 5.87551 15.8227 3.84 15.48C1.46 14.97 0 13.48 0 11.48V4.47998C0 2.50998 1.46 0.99998 3.8 0.50998ZM8.26 11.45L13.26 8.44998V8.41998C13.4069 8.32632 13.4958 8.16417 13.4958 7.98998C13.4958 7.81579 13.4069 7.65364 13.26 7.55998L8.26 4.55998C8.10071 4.47465 7.90929 4.47465 7.75 4.55998C7.59611 4.65347 7.50153 4.81992 7.5 4.99998V11C7.49444 11.1871 7.58993 11.3628 7.75 11.46C7.82768 11.4988 7.91319 11.5193 8 11.52C8.09157 11.5219 8.18179 11.4976 8.26 11.45Z" fill="#1E8A47"/>
</svg>
